<svg viewBox="0 0 170.63589 178.25357">
    <g transform="translate(-22.407312,-83.39003)">
        <path d="m 48.819936,113.61149 c -20.941946,20.94195 -20.941583,55.1772 3.64e-4,76.11915 17.716697,17.71669 44.946436,20.4433 65.59358,8.18367 l 4.6702,-0.58165 15.26058,15.26058 -0.26133,4.99052 25.6579,25.65789 c 5.18235,5.18236 13.52651,5.18236 18.70886,0 5.18236,-5.18236 5.18236,-13.52651 0,-18.70887 l -25.65789,-25.65789 -4.99052,0.26133 -15.26058,-15.26058 0.58165,-4.6702 c 12.25963,-20.64714 9.53302,-47.87688 -8.18367,-65.59358 -20.94195,-20.941951 -55.1772,-20.942314 -76.119144,-3.7e-4 z m 13.096938,13.09694 c 13.86423,-13.86423 36.061401,-13.86423 49.925626,0 13.86423,13.86423 13.86424,36.06141 1e-5,49.92564 -13.864232,13.86423 -36.061408,13.86423 -49.925638,0 -13.864232,-13.86424 -13.864228,-36.06141 2e-6,-49.92564 z" id="path14" inkscape:connector-curvature="0" sodipodi:nodetypes="ssccccsssccccsssssss" />
    </g>
</svg>